PathFileType	4	(X/Y/Z)	C:\Users\chris\Documents\GitHub\baseballds\vids\pitch7_Sports2D\pitch7_Sports2D_m_person00.trc
DataRate	CameraRate	NumFrames	NumMarkers	Units	OrigDataRate	OrigDataStartFrame	OrigNumFrames
30	30	7	22	m	30	88	236
Frame#	Time	Hip			RHip			RKnee			RAnkle			RBigToe			RSmallToe			RHeel			LHip			LKnee			LAnkle			LBigToe			LSmallToe			LHeel			Neck			Head			Nose			RShoulder			RElbow			RWrist			LShoulder			LElbow			LWrist		
		X1	Y1	Z1	X2	Y2	Z2	X3	Y3	Z3	X4	Y4	Z4	X5	Y5	Z5	X6	Y6	Z6	X7	Y7	Z7	X8	Y8	Z8	X9	Y9	Z9	X10	Y10	Z10	X11	Y11	Z11	X12	Y12	Z12	X13	Y13	Z13	X14	Y14	Z14	X15	Y15	Z15	X16	Y16	Z16	X17	Y17	Z17	X18	Y18	Z18	X19	Y19	Z19	X20	Y20	Z20	X21	Y21	Z21	X22	Y22	Z22
88	2.933333333333333	1.7076038138532073	0.9187250193265485	0.0	1.5963754972625914	0.8921370872297472	0.0	1.6034874161797528	0.45730145913341513	0.0	1.575799061068584	0.10694514962594327	0.0	1.5982258118657076	-0.03322344167162414	0.0	1.5241605526053672	-0.02153236622856813	0.0	1.5889579591405802	0.06253745688747384	0.0	1.8190092809334901	0.9014194991667078	0.0	1.8814394608130205	0.47266348402686204	0.0	1.9666472274707512	0.1331470873523318	0.0	1.9095926229473927	0.0010899006864799692	0.0	1.982448682790813	0.009075576368899515	0.0	1.9881632802140348	0.08760129919267054	0.0	1.664042564688207	1.4803474330482074	0.0	1.6823633911729254	1.7516268714753602	0.0	1.7654530287130081	1.5985450218109738	0.0	1.4807585510269432	1.3566935204267232	0.0	1.4412760701830487	1.0624128383357885	0.0	1.5356854337322505	0.8376184188637198	0.0	1.862380424523227	1.4211925275501	0.0	2.0215008053805743	1.2177333415174523	0.0	2.235866864636354	1.1003220440300914	0.0
89	2.966666666666667	1.6994187044322497	0.9107285981017862	0.0	1.589249815788882	0.8854206248698205	0.0	1.6013007431921666	0.4540863771181068	0.0	1.5795995325389642	0.09971552961326809	0.0	1.5958338321553303	-0.03469886240545002	0.0	1.5252540182532894	-0.026447897311114143	0.0	1.593995097057233	0.05685407205535157	0.0	1.8120872877019127	0.8934198510719745	0.0	1.8793482726307846	0.4709960753557987	0.0	1.9736148474858326	0.12995425397451849	0.0	1.9122022095091904	0.0024776923461971474	0.0	1.9850731876878929	0.010187982467483907	0.0	1.992180907214521	0.08546623658119354	0.0	1.662074907391972	1.4778071267865487	0.0	1.672735314939691	1.7490824848551052	0.0	1.744682124639465	1.599560652322295	0.0	1.4772276630211334	1.3568333724936268	0.0	1.4390579038718834	1.0654709520506342	0.0	1.5487414575321024	0.860000421511699	0.0	1.8577188060649672	1.4147701067695768	0.0	2.0015276165976283	1.198575738038203	0.0	2.188659432371035	1.0558717848784123	0.0
90	3.0	1.6936080220124088	0.9076661543391108	0.0	1.5831441488933613	0.8836834465167903	0.0	1.600699943496336	0.45788816301821705	0.0	1.5842292892463368	0.09404584020318844	0.0	1.5969769831732832	-0.03704226252108381	0.0	1.5302933608309126	-0.03188699354968119	0.0	1.5985627733004335	0.05119373770677476	0.0	1.807340415498441	0.8923608392667758	0.0	1.8782299912504534	0.47408290964955546	0.0	1.976106368349908	0.12928041693968909	0.0	1.9159988871747056	0.0024787009203182503	0.0	1.989343649936856	0.01048437422776878	0.0	1.9920283480167411	0.08579275928077908	0.0	1.661284130370334	1.4764385222709868	0.0	1.6639838150398514	1.7490982586305983	0.0	1.7237814726323129	1.604660129501379	0.0	1.473606267998103	1.35808005561737	0.0	1.4374434089848451	1.0693727737588472	0.0	1.5601495018383815	0.8839693488255606	0.0	1.8541645424955233	1.409829232048525	0.0	1.9817849700380645	1.1814386215613495	0.0	2.141582802004884	1.0186475373273223	0.0
91	3.033333333333333	1.691962531606536	0.9083363446105773	0.0	1.579472799223662	0.8842536757688311	0.0	1.6015611523600652	0.4607726397077208	0.0	1.5892034257876406	0.0944606872728857	0.0	1.6059879622022768	-0.035406732237105644	0.0	1.5409538936519356	-0.03192615542601024	0.0	1.6020482534447544	0.05144105365011733	0.0	1.8055495077824097	0.8951510404578925	0.0	1.8781068567020376	0.47732044829717446	0.0	1.975645418224231	0.13030205883431042	0.0	1.9213349340543961	-0.00015076441463521167	0.0	1.9943064273456284	0.009297003786105073	0.0	1.9904872922232604	0.0865655088788387	0.0	1.6615890272935405	1.476452694350233	0.0	1.6576061460686955	1.7527225487416516	0.0	1.7056535149354606	1.6116604194420114	0.0	1.4713078382744025	1.3598266668035435	0.0	1.4371505968784044	1.072643602892	0.0	1.5689147167234416	0.9055747616555052	0.0	1.8522568266246258	1.40706657174961	0.0	1.9612497264866706	1.1710570496743336	0.0	2.0943097967278144	0.9936164506776659	0.0
92	3.0666666666666664	1.6927526958794925	0.9080434697039318	0.0	1.5784511542606492	0.8836467864006928	0.0	1.6031222295834537	0.46064283033882686	0.0	1.5937286595790454	0.0970174795027775	0.0	1.6194925102796154	-0.028263653310447515	0.0	1.5533161416128138	-0.025815240437019642	0.0	1.6047194032286438	0.054515441822247594	0.0	1.8059688419092716	0.8956357415843599	0.0	1.8788415608098143	0.4773327603971809	0.0	1.9764022677457878	0.12994576756014875	0.0	1.9282475525581946	-0.004263153631424017	0.0	1.999476247115558	0.007088462784758696	0.0	1.9908015665369334	0.08518792939825462	0.0	1.6618848969994848	1.4769640086961617	0.0	1.6545667560453743	1.7568351100326243	0.0	1.6915820185548793	1.6171664248403668	0.0	1.4715308609795301	1.361650369344178	0.0	1.4374145172865747	1.0747784997426848	0.0	1.5766239350194724	0.9253735341851175	0.0	1.8510787610443626	1.4055101958980238	0.0	1.9432827816311478	1.1678520812907955	0.0	2.0462384939032026	0.9815631856723751	0.0
93	3.1	1.6937488752062744	0.9041201878920149	0.0	1.579231218212999	0.8798051912251097	0.0	1.604939806687765	0.46065343637766265	0.0	1.5982120617819184	0.09556314155260554	0.0	1.6295170581675174	-0.021523659544321325	0.0	1.560835407383957	-0.01940064992979355	0.0	1.6075550400207306	0.054457600310572174	0.0	1.8076870791102828	0.8914390168885148	0.0	1.8813195815943298	0.47568921384720314	0.0	1.9796138195952282	0.1292888498561096	0.0	1.9360088420211503	-0.006580545660639657	0.0	2.0047668238155563	0.006558365210136726	0.0	1.992886968235615	0.08366608733246544	0.0	1.661704486516634	1.4772451547646568	0.0	1.6532650541376688	1.759058455016605	0.0	1.683541234259043	1.6201807106080723	0.0	1.4726762907200066	1.3627222967638475	0.0	1.438341681675172	1.0762910657105584	0.0	1.5877712836876379	0.9434654386879895	0.0	1.8503795408124002	1.404285065074345	0.0	1.9320337732159052	1.1663679218155398	0.0	1.9981158283275178	0.9774866495981317	0.0
94	3.1333333333333333	1.6957863589515998	0.8965069473417122	0.0	1.5818215812545813	0.8723693093139865	0.0	1.606340242233651	0.46021515006925023	0.0	1.6034434446105983	0.09144281375182134	0.0	1.6341520493981632	-0.02043327784728879	0.0	1.5631010898170148	-0.017487971621833704	0.0	1.6122526741910332	0.051856621430153564	0.0	1.8109762929766682	0.8827095548247041	0.0	1.885612433462487	0.4743190778382254	0.0	1.9836277985384851	0.13183183548116026	0.0	1.9432920574904282	-0.003995600893772095	0.0	2.010357870375227	0.009866207454026799	0.0	1.9958645508293777	0.0863525740211766	0.0	1.6618897647038386	1.4783017480431997	0.0	1.6529966589935612	1.7603719663858333	0.0	1.6818516752871808	1.6217909628063214	0.0	1.4731565776707325	1.3629124971045865	0.0	1.4409704306825313	1.0768927703919353	0.0	1.6044871990028604	0.9579785911282622	0.0	1.8513797029607433	1.40409498633348	0.0	1.9279081117615315	1.1616940489407745	0.0	1.9532284030419798	0.9772782995209861	0.0
